<?xml version="1.0"?>
<svg xmlns="http://www.w3.org/2000/svg" width="512px" height="512px" viewBox="0 0 128 128" class=""><g><g><path d="M56.812,45.748a1.75,1.75,0,0,0,0,3.5A12.076,12.076,0,0,1,68.875,61.31a1.75,1.75,0,0,0,3.5,0A15.58,15.58,0,0,0,56.812,45.748Z" data-original="#000000" class="active-path" data-old_color="#000000" fill="#FFFFFF"/><path d="M116.6,37.4A19.184,19.184,0,0,0,88.229,21.531,28.2,28.2,0,0,0,36.891,37.2a14.429,14.429,0,0,0-10.866,7.383A17.467,17.467,0,0,0,10.278,60.934a13.126,13.126,0,0,0,2.847,25.939h67.5A13.111,13.111,0,0,0,91.1,65.862h22.519A14.387,14.387,0,0,0,116.6,37.4ZM80.625,83.373h-67.5a9.624,9.624,0,0,1-.933-19.2,1.75,1.75,0,0,0,1.582-1.8l-.015-.263c0-.056-.009-.112-.009-.169A13.939,13.939,0,0,1,35.486,50.383a1.749,1.749,0,0,0,2.475-.539A22.064,22.064,0,0,1,78.875,61.31c0,.332-.011.66-.025.987A1.748,1.748,0,0,0,80.6,64.124h.066a9.625,9.625,0,0,1-.039,19.25Zm33-21.011H87.128a13.019,13.019,0,0,0-4.759-1.624,25.565,25.565,0,0,0-46.44-14.173,17.312,17.312,0,0,0-5.775-1.887A10.9,10.9,0,0,1,38.6,40.589h.067a1.748,1.748,0,0,0,1.748-1.824c-.016-.367-.027-.736-.027-1.107A24.7,24.7,0,0,1,86.2,24.82a1.75,1.75,0,0,0,2.475.538,15.679,15.679,0,0,1,24.449,13c0,.067-.006.132-.011.2-.006.1-.012.2-.015.294a1.749,1.749,0,0,0,1.582,1.8,10.885,10.885,0,0,1-1.055,21.719Z" data-original="#000000" class="active-path" data-old_color="#000000" fill="#FFFFFF"/><path d="M18.862,93.349a1.748,1.748,0,0,0-2.474,0l-7.125,7.125a1.749,1.749,0,1,0,2.474,2.474l7.125-7.125A1.748,1.748,0,0,0,18.862,93.349Z" data-original="#000000" class="active-path" data-old_color="#000000" fill="#FFFFFF"/><path d="M24.8,102.948l7.125-7.125a1.75,1.75,0,0,0-2.475-2.474l-7.125,7.125a1.75,1.75,0,1,0,2.475,2.474Z" data-original="#000000" class="active-path" data-old_color="#000000" fill="#FFFFFF"/><path d="M37.868,102.948l7.125-7.125a1.749,1.749,0,0,0-2.474-2.474l-7.125,7.125a1.749,1.749,0,1,0,2.474,2.474Z" data-original="#000000" class="active-path" data-old_color="#000000" fill="#FFFFFF"/><path d="M50.934,102.948l7.125-7.125a1.75,1.75,0,0,0-2.475-2.474l-7.125,7.125a1.75,1.75,0,1,0,2.475,2.474Z" data-original="#000000" class="active-path" data-old_color="#000000" fill="#FFFFFF"/><path d="M64,102.948l7.125-7.125a1.75,1.75,0,0,0-2.475-2.474l-7.125,7.125A1.75,1.75,0,1,0,64,102.948Z" data-original="#000000" class="active-path" data-old_color="#000000" fill="#FFFFFF"/><path d="M77.065,102.948l7.125-7.125a1.749,1.749,0,1,0-2.474-2.474l-7.125,7.125a1.749,1.749,0,1,0,2.474,2.474Z" data-original="#000000" class="active-path" data-old_color="#000000" fill="#FFFFFF"/><path d="M90.131,102.948l7.125-7.125a1.75,1.75,0,0,0-2.475-2.474l-7.125,7.125a1.75,1.75,0,1,0,2.475,2.474Z" data-original="#000000" class="active-path" data-old_color="#000000" fill="#FFFFFF"/><path d="M103.2,102.948l7.125-7.125a1.749,1.749,0,1,0-2.474-2.474l-7.125,7.125a1.749,1.749,0,1,0,2.474,2.474Z" data-original="#000000" class="active-path" data-old_color="#000000" fill="#FFFFFF"/><path d="M26.4,108.432l-7.125,7.125a1.75,1.75,0,0,0,2.475,2.475l7.125-7.125a1.75,1.75,0,1,0-2.475-2.475Z" data-original="#000000" class="active-path" data-old_color="#000000" fill="#FFFFFF"/><path d="M39.461,108.432l-7.125,7.125a1.75,1.75,0,0,0,2.474,2.475l7.125-7.125a1.75,1.75,0,0,0-2.474-2.475Z" data-original="#000000" class="active-path" data-old_color="#000000" fill="#FFFFFF"/><path d="M52.526,108.432,45.4,115.557a1.75,1.75,0,0,0,2.475,2.475L55,110.907a1.75,1.75,0,0,0-2.475-2.475Z" data-original="#000000" class="active-path" data-old_color="#000000" fill="#FFFFFF"/><path d="M65.593,108.432l-7.125,7.125a1.75,1.75,0,0,0,2.474,2.475l7.125-7.125a1.75,1.75,0,0,0-2.474-2.475Z" data-original="#000000" class="active-path" data-old_color="#000000" fill="#FFFFFF"/><path d="M78.658,108.432l-7.125,7.125a1.75,1.75,0,0,0,2.475,2.475l7.125-7.125a1.75,1.75,0,0,0-2.475-2.475Z" data-original="#000000" class="active-path" data-old_color="#000000" fill="#FFFFFF"/><path d="M91.724,108.432,84.6,115.557a1.75,1.75,0,0,0,2.474,2.475l7.125-7.125a1.75,1.75,0,0,0-2.474-2.475Z" data-original="#000000" class="active-path" data-old_color="#000000" fill="#FFFFFF"/><path d="M104.789,108.432l-7.125,7.125a1.75,1.75,0,0,0,2.475,2.475l7.125-7.125a1.75,1.75,0,0,0-2.475-2.475Z" data-original="#000000" class="active-path" data-old_color="#000000" fill="#FFFFFF"/><path d="M117.854,108.432l-7.125,7.125a1.75,1.75,0,0,0,2.475,2.475l7.125-7.125a1.75,1.75,0,0,0-2.475-2.475Z" data-original="#000000" class="active-path" data-old_color="#000000" fill="#FFFFFF"/></g></g> </svg>
