<?xml version="1.0"?>
<svg xmlns="http://www.w3.org/2000/svg" height="512px" viewBox="0 0 128 128" width="512px"><g><g><path d="m128.06 54.546a16.664 16.664 0 0 0 -15.458-16.6 31.177 31.177 0 0 0 -30.946-28.822 30.862 30.862 0 0 0 -27.9 17.445 24.592 24.592 0 0 0 -37.286 11.337 16.64 16.64 0 0 0 .171 33.28h3.811l-1.252 1.256a1.75 1.75 0 0 0 2.474 2.475l3.73-3.731h8.867l-1.255 1.256a1.75 1.75 0 0 0 2.474 2.475l3.73-3.731h10.339l-20.743 20.744a1.749 1.749 0 0 0 1.237 2.987h14.347l-20.969 20.972a1.75 1.75 0 0 0 2.063 2.78l58.647-31.353a1.75 1.75 0 0 0 -.826-3.293h-20.994l12.836-12.837h22.967l-6.9 6.9a1.75 1.75 0 1 0 2.476 2.477l9.377-9.377h8.346c.185 0 .365-.021.549-.027l-1.283 1.283a1.75 1.75 0 0 0 2.474 2.475l5.328-5.328a16.648 16.648 0 0 0 9.569-15.043zm-71.2 29.99a1.75 1.75 0 0 0 1.24 2.987h18.23l-42.08 22.5 15.615-15.623a1.749 1.749 0 0 0 -1.237-2.987h-14.35l20.231-20.227h15.7zm54.56-16.85h-94.779a13.141 13.141 0 1 1 0-26.281c.276 0 .547.021.819.041l.114.008a1.755 1.755 0 0 0 1.793-1.219 21.09 21.09 0 0 1 33.933-9.574 1.751 1.751 0 0 0 2.773-.675 27.526 27.526 0 0 1 53.1 9.722 1.751 1.751 0 0 0 .545 1.241 1.773 1.773 0 0 0 1.267.48l.259-.014c.057 0 .114-.01.172-.01a13.141 13.141 0 1 1 0 26.281z" data-original="#000000" class="active-path" data-old_color="#000000" fill="#FFFFFF"/><path d="m39.484 32a14.536 14.536 0 0 0 -13.919 10.192 1.75 1.75 0 1 0 3.335 1.054 11.049 11.049 0 0 1 10.584-7.746 1.75 1.75 0 0 0 0-3.5z" data-original="#000000" class="active-path" data-old_color="#000000" fill="#FFFFFF"/><path d="m81.656 19.124a1.75 1.75 0 0 0 0 3.5 17.6 17.6 0 0 1 17.521 17.244 1.75 1.75 0 0 0 1.749 1.722h.029a1.752 1.752 0 0 0 1.722-1.778 21.119 21.119 0 0 0 -21.021-20.688z" data-original="#000000" class="active-path" data-old_color="#000000" fill="#FFFFFF"/><path d="m89.822 93.305-7.322 7.327a1.75 1.75 0 1 0 2.475 2.474l7.325-7.327a1.75 1.75 0 0 0 -2.475-2.474z" data-original="#000000" class="active-path" data-old_color="#000000" fill="#FFFFFF"/><path d="m103.357 79.769-7.327 7.331a1.75 1.75 0 1 0 2.475 2.474l7.327-7.327a1.75 1.75 0 0 0 -2.475-2.475z" data-original="#000000" class="active-path" data-old_color="#000000" fill="#FFFFFF"/><path d="m74.049 109.078-4.242 4.242a1.75 1.75 0 1 0 2.474 2.475l4.242-4.243a1.749 1.749 0 1 0 -2.474-2.474z" data-original="#000000" class="active-path" data-old_color="#000000" fill="#FFFFFF"/><path d="m75.868 98.391a1.749 1.749 0 1 0 -2.474-2.474l-6.121 6.12a1.75 1.75 0 0 0 2.475 2.475z" data-original="#000000" class="active-path" data-old_color="#000000" fill="#FFFFFF"/><path d="m60.233 109.078-4.243 4.242a1.75 1.75 0 1 0 2.475 2.475l4.242-4.243a1.749 1.749 0 1 0 -2.474-2.474z" data-original="#000000" class="active-path" data-old_color="#000000" fill="#FFFFFF"/><path d="m28.089 79.84a1.749 1.749 0 0 0 -2.475 0l-7.4 7.4a1.75 1.75 0 1 0 2.475 2.475l7.4-7.4a1.751 1.751 0 0 0 0-2.475z" data-original="#000000" class="active-path" data-old_color="#000000" fill="#FFFFFF"/><path d="m10.818 94.637-4.243 4.242a1.75 1.75 0 1 0 2.475 2.475l4.242-4.243a1.749 1.749 0 1 0 -2.474-2.474z" data-original="#000000" class="active-path" data-old_color="#000000" fill="#FFFFFF"/><path d="m11.972 79.666-4.243 4.243a1.75 1.75 0 1 0 2.471 2.474l4.243-4.242a1.75 1.75 0 0 0 -2.475-2.475z" data-original="#000000" class="active-path" data-old_color="#000000" fill="#FFFFFF"/></g></g> </svg>
